<svg width="80" height="80" viewBox="0 0 80 80" fill="none" xmlns="http://www.w3.org/2000/svg">
<path d="M52.5 32.5V17.6562C52.5 14.341 51.183 11.1616 48.8388 8.81742C46.4946 6.47321 43.3152 5.15625 40 5.15625C36.6848 5.15625 33.5054 6.47321 31.1612 8.81742C28.817 11.1616 27.5 14.341 27.5 17.6562V32.5" stroke="#06357a" stroke-width="4" stroke-linecap="round" stroke-linejoin="round"/>
<path d="M57.5 32.5H22.5C18.3579 32.5 15 35.8579 15 40V67.5C15 71.6421 18.3579 75 22.5 75H57.5C61.6421 75 65 71.6421 65 67.5V40C65 35.8579 61.6421 32.5 57.5 32.5Z" stroke="#06357a" stroke-width="4" stroke-linecap="round" stroke-linejoin="round"/>
</svg>
